<?xml version="1.0" encoding="UTF-8"?>
<svg version="1.1" xmlns="http://www.w3.org/2000/svg" width="149" height="149">
<path d="M0 0 C15.04762416 11.69439315 25.92643387 28.92166249 28.9296875 47.8671875 C30.73894366 70.82807653 26.88506638 90.38316055 12.6171875 108.7421875 C0.3711667 122.82406832 -17.02450265 133.63838018 -35.92675781 135.0859375 C-59.11809296 136.24731892 -78.78201016 131.7411445 -96.58203125 116.26171875 C-111.41293416 101.98959397 -119.94066797 84.26406417 -120.5390625 63.66308594 C-120.74752151 41.67717423 -114.53927799 22.88772064 -99.0703125 6.8671875 C-71.28535818 -19.1837875 -31.07404351 -21.58578595 0 0 Z " fill="#2BA1DC" transform="translate(120.0703125,14.1328125)"/>
<path d="M0 0 C1.92578125 1.66796875 1.92578125 1.66796875 3 3 C2.01902344 2.71125 1.03804688 2.4225 0.02734375 2.125 C-13.6347615 -1.71213301 -26.70082339 -3.33205179 -40 3 C-51.68059684 9.62907435 -59.3068899 19.14449455 -63.64453125 31.89453125 C-65.84408678 44.92266782 -63.78526713 57.84960254 -56.375 68.875 C-52.26622274 74.10227774 -47.76480315 77.73120561 -42 81 C-41.27683594 81.433125 -40.55367187 81.86625 -39.80859375 82.3125 C-30.34548982 87.05228075 -16.71108469 86.66531167 -6.8125 83.375 C-2.69266542 81.58376757 0.80097283 79.23936175 4.24609375 76.3671875 C6.07414726 74.94220147 7.90025716 73.96911208 10 73 C11.20254524 74.23553276 12.38666232 75.48902339 13.5625 76.75 C14.22378906 77.44609375 14.88507813 78.1421875 15.56640625 78.859375 C17 81 17 81 16.9765625 83.05078125 C13.96459906 89.06266028 5.70313093 92.42111397 -0.1875 94.9375 C-12.00620159 98.85114899 -28.258247 99.54259781 -39.72265625 94.265625 C-40.47417969 93.84796875 -41.22570312 93.4303125 -42 93 C-42.86496094 92.54109375 -43.72992188 92.0821875 -44.62109375 91.609375 C-58.10113186 83.99806076 -65.99044839 73.69328736 -71 59 C-71.8125 55.5 -71.8125 55.5 -72 52 C-72.05027344 51.13117188 -72.10054687 50.26234375 -72.15234375 49.3671875 C-72.62629958 34.84518083 -68.55997058 22.468243 -59.3125 11.25 C-43.50129886 -5.58516464 -20.6845888 -9.30675415 0 0 Z " fill="#F8FCFD" transform="translate(83,28)"/>
<path d="M0 0 C0.73456273 5.7540747 -0.55434166 8.70852724 -3.91015625 13.3671875 C-6.91869821 17.15738802 -10.06479339 20.82009751 -13.23852539 24.47241211 C-16.98226791 28.78407462 -20.63102693 33.15742781 -24.1875 37.625 C-24.65696045 38.20467529 -25.1264209 38.78435059 -25.61010742 39.3815918 C-28.81435288 43.27216834 -28.81435288 43.27216834 -30 48 C-29.08839466 50.38613749 -27.92064383 52.53145049 -26.71484375 54.78125 C-26 57 -26 57 -26.87890625 59.28125 C-27.24886719 59.8484375 -27.61882812 60.415625 -28 61 C-29.32 61 -30.64 61 -32 61 C-33.6484375 59.3125 -33.6484375 59.3125 -35.375 57 C-40.5059117 50.84485688 -46.98838627 47.61413236 -54 44 C-52.25 40.1015625 -52.25 40.1015625 -50 39.1875 C-47 39 -47 39 -44.765625 39.59375 C-41.84862572 40.2822343 -39.9582654 40.59427488 -37 40 C-32.82071006 35.95189853 -29.60422978 31.20845956 -27 26 C-27.94939453 25.87818359 -27.94939453 25.87818359 -28.91796875 25.75390625 C-33.2959718 24.68298789 -37.22264205 22.80650375 -41.3125 20.9375 C-42.14845703 20.56044922 -42.98441406 20.18339844 -43.84570312 19.79492188 C-45.89927262 18.86788193 -47.95056287 17.93613122 -50 17 C-48.40233105 13.66129279 -46.96090488 11.31385399 -44 9 C-41.328125 8.72265625 -41.328125 8.72265625 -38.25 9.0625 C-37.11691406 9.18625 -35.98382813 9.31 -34.81640625 9.4375 C-28.16894006 10.41726984 -21.58259932 11.65643993 -15 13 C-14.72929688 12.41476563 -14.45859375 11.82953125 -14.1796875 11.2265625 C-13.00858717 9.01620758 -11.74224423 7.27714736 -10.125 5.375 C-9.63257813 4.78460938 -9.14015625 4.19421875 -8.6328125 3.5859375 C-5.88031629 0.91246032 -3.84021102 0 0 0 Z " fill="#F9FCFE" transform="translate(135,45)"/>
<path d="M0 0 C0.66 0.33 1.32 0.66 2 1 C1.51789062 1.64066406 1.03578125 2.28132813 0.5390625 2.94140625 C-5.36098053 11.02085293 -8.17440357 17.91480938 -7 28 C-4.94499102 36.48858822 -1.68521461 42.87188936 5.6328125 47.7578125 C12.72408748 51.73855433 18.91483958 53.33639015 27 52 C31.44460178 50.58402067 35.13027822 48.57981452 39 46 C42.83103042 46.31925253 44.76680553 46.84453702 48 49 C48 49.66 48 50.32 48 51 C40.01718249 57.0975138 30.66383458 60.71195949 20.57421875 60.34765625 C9.99479693 58.91887242 0.94098402 53.30832153 -5.6796875 45.0234375 C-11.09240713 36.72820446 -12.12713016 27.707121 -11 18 C-9.19731103 11.23485264 -4.93799499 4.93799499 0 0 Z " fill="#F4FAFD" transform="translate(38,48)"/>
<path d="M0 0 C3.42093927 3.14977093 4.86086062 6.60627195 6.6875 10.8125 C7.00783203 11.51181641 7.32816406 12.21113281 7.65820312 12.93164062 C9.47450011 17.07155849 10.61962763 20.39610006 10 25 C8.61900548 27.39701193 6.93021219 28.9732772 5 31 C1.15274582 27.31911357 -2.11385725 23.43814081 -5.3125 19.1875 C-5.76689453 18.59001953 -6.22128906 17.99253906 -6.68945312 17.37695312 C-7.79633917 15.92052412 -8.89865264 14.46062183 -10 13 C-7.74376669 9.53717236 -5.48129421 6.22874342 -2.75 3.125 C-2.22921875 2.52945313 -1.7084375 1.93390625 -1.171875 1.3203125 C-0.78515625 0.88460937 -0.3984375 0.44890625 0 0 Z " fill="#F8FCFD" transform="translate(128,68)"/>
<path d="M0 0 C10.07731886 -0.69873551 22.81565765 -0.35641822 30.92578125 6.66796875 C31.28027344 7.10753906 31.63476562 7.54710937 32 8 C30.9378125 7.72285156 29.875625 7.44570313 28.78125 7.16015625 C27.35423263 6.79401364 25.92714552 6.42814278 24.5 6.0625 C23.80390625 5.88009766 23.1078125 5.69769531 22.390625 5.50976562 C17.60162506 4.29034434 12.91462529 3.52577635 8 3 C8 2.67 8 2.34 8 2 C5.36 1.67 2.72 1.34 0 1 C0 0.67 0 0.34 0 0 Z " fill="#C9E7F6" transform="translate(54,23)"/>
<path d="M0 0 C0.66 0.33 1.32 0.66 2 1 C1.51789062 1.64066406 1.03578125 2.28132813 0.5390625 2.94140625 C-3.0757445 7.8914787 -5.8175175 11.95620058 -7 18 C-7.99 17.67 -8.98 17.34 -10 17 C-8.673512 10.07278489 -4.9677905 4.9677905 0 0 Z " fill="#DAEEF8" transform="translate(38,48)"/>
<path d="M0 0 C0.66 0.33 1.32 0.66 2 1 C0.02 3.31 -1.96 5.62 -4 8 C-4 4.09161134 -2.49432124 2.88405893 0 0 Z " fill="#6ABDE6" transform="translate(42,45)"/>
</svg>
